<svg width="24" height="24" viewBox="0 0 24 24" fill="" xmlns="http://www.w3.org/2000/svg">
  <path
    d="M14.3998 12L18.2748 17.425C18.5081 17.7583 18.5371 18.104 18.3618 18.462C18.1864 18.82 17.8908 18.9993 17.4748 19C17.3081 19 17.1498 18.9623 16.9998 18.887C16.8498 18.8117 16.7331 18.7077 16.6498 18.575L11.9498 12L16.6498 5.42501C16.7331 5.29168 16.8498 5.18735 16.9998 5.11201C17.1498 5.03668 17.3081 4.99935 17.4748 5.00002C17.8748 5.00002 18.1664 5.17902 18.3498 5.53702C18.5331 5.89502 18.5081 6.24102 18.2748 6.57502L14.3998 12ZM8.44977 12L12.3248 17.425C12.5581 17.7583 12.5874 18.104 12.4128 18.462C12.2381 18.82 11.9418 18.9993 11.5238 19C11.3571 19 11.1988 18.9623 11.0488 18.887C10.8988 18.8117 10.7821 18.7077 10.6988 18.575L5.99977 12L10.6998 5.42501C10.7831 5.29168 10.8998 5.18735 11.0498 5.11201C11.1998 5.03668 11.3581 4.99935 11.5248 5.00001C11.9248 5.00001 12.2164 5.17902 12.3998 5.53702C12.5831 5.89502 12.5581 6.24102 12.3248 6.57502L8.44977 12Z"
    fill="rgb(65, 34, 120)" />
</svg>