<svg stroke="currentColor" fill="currentColor" stroke-width="0" viewBox="0 0 192 512" height="200px" width="200px"
  xmlns="http://www.w3.org/2000/svg" data-darkreader-inline-fill="" data-darkreader-inline-stroke=""
  style="--darkreader-inline-fill: currentColor; --darkreader-inline-stroke: currentColor;">
  <path
    d="M96 184c39.8 0 72 32.2 72 72s-32.2 72-72 72-72-32.2-72-72 32.2-72 72-72zM24 80c0 39.8 32.2 72 72 72s72-32.2 72-72S135.8 8 96 8 24 40.2 24 80zm0 352c0 39.8 32.2 72 72 72s72-32.2 72-72-32.2-72-72-72-72 32.2-72 72z">
  </path>
</svg>