<svg width="500" height="500" viewBox="0 0 500 500" fill="none" xmlns="http://www.w3.org/2000/svg">
<path d="M257.745 396.033C332.274 370.894 369.765 282.542 341.482 198.695C313.199 114.847 229.854 67.2541 155.325 92.3934C80.7961 117.533 43.306 205.884 71.5886 289.732C99.8711 373.58 183.216 421.172 257.745 396.033Z" fill="#F5F5FF"/>
<path d="M349.605 449.085C383.25 449.085 410.525 444.027 410.525 437.787C410.525 431.547 383.25 426.489 349.605 426.489C315.96 426.489 288.685 431.547 288.685 437.787C288.685 444.027 315.96 449.085 349.605 449.085Z" fill="#DFDFEB"/>
<path d="M287.494 313.87H58.9109C53.3009 313.87 48.7529 309.322 48.7529 303.712V160.014C48.7529 154.404 53.3009 149.856 58.9109 149.856H287.494C293.104 149.856 297.652 154.404 297.652 160.014V303.712C297.652 309.322 293.104 313.87 287.494 313.87Z" fill="#D3DDF7"/>
<path d="M287.494 149.856H58.9109C53.3009 149.856 48.7529 154.404 48.7529 160.014V169.998H297.651V160.014C297.652 154.404 293.104 149.856 287.494 149.856Z" fill="#6D00C8"/>
<path d="M256.366 163.844C258.353 163.844 259.963 162.234 259.963 160.247C259.963 158.26 258.353 156.65 256.366 156.65C254.379 156.65 252.769 158.26 252.769 160.247C252.769 162.234 254.379 163.844 256.366 163.844Z" stroke="black" stroke-miterlimit="10" stroke-linejoin="round"/>
<path d="M269.815 163.844C271.802 163.844 273.412 162.234 273.412 160.247C273.412 158.26 271.802 156.65 269.815 156.65C267.829 156.65 266.218 158.26 266.218 160.247C266.218 162.234 267.829 163.844 269.815 163.844Z" stroke="black" stroke-miterlimit="10" stroke-linejoin="round"/>
<path d="M283.265 163.844C285.252 163.844 286.862 162.234 286.862 160.247C286.862 158.26 285.252 156.65 283.265 156.65C281.278 156.65 279.668 158.26 279.668 160.247C279.668 162.234 281.278 163.844 283.265 163.844Z" stroke="black" stroke-miterlimit="10" stroke-linejoin="round"/>
<path d="M150.813 200.125C147.976 200.125 145.23 198.23 143.052 196.412L140.4 194.199C138.76 192.83 136.811 192.097 134.814 192.097H112.189C110.136 192.097 108.472 193.761 108.472 195.814V200.125V279.147C108.472 281.903 110.706 284.136 113.461 284.136H227.669C230.425 284.136 232.658 281.902 232.658 279.147V205.115C232.658 202.359 230.424 200.126 227.669 200.126H150.813V200.125Z" fill="#6D00C8"/>
<path d="M223.563 216.111H191.255C189.815 216.111 188.647 214.943 188.647 213.503C188.647 212.063 189.815 210.895 191.255 210.895H223.563C225.003 210.895 226.171 212.063 226.171 213.503C226.171 214.944 225.003 216.111 223.563 216.111Z" stroke="black" stroke-miterlimit="10"/>
<path d="M416.122 193.9C416.122 193.9 421.858 207.39 422.598 211.304C424.865 223.284 435.631 256.23 439.273 260.359C439.273 260.359 446.073 261.088 449.472 259.145C449.472 259.145 440.972 205.233 437.33 197.948C433.687 190.663 431.259 178.763 431.259 178.763L416.122 193.9Z" fill="#BA6F4C"/>
<path d="M448.643 257.27C444.882 254.141 437.293 255.999 435.97 260.709C434.893 264.543 434.855 266.703 434.757 267.357C434.566 268.636 429.912 276.552 430.804 278.176C431.449 279.352 434.74 275.656 436.387 273.062C436.726 272.528 437.545 272.732 437.601 273.362C437.913 276.884 438.605 283.929 439.212 284.805C440.025 285.978 442.982 290.946 443.859 290.408C444.736 289.869 443.752 286.41 442.982 284.095C442.212 281.78 443.16 276.629 443.16 276.629C443.16 276.629 447.065 288.384 448.719 290.507C451.183 293.669 452.003 288.508 452.003 288.508C453.481 290.125 454.917 286.276 454.661 285.067C454.156 282.678 450.455 274.215 451.11 274.525C451.765 274.835 455.94 283.775 457.835 284.036C459.73 284.298 458.812 281.071 457.749 278.935C456.686 276.8 453.807 270.652 453.807 270.652C453.807 270.652 452.843 264.829 449.265 258.572C449.235 258.522 448.687 257.307 448.643 257.27Z" fill="#BA6F4C"/>
<path d="M451.925 288.224L446.798 276.303" stroke="black" stroke-miterlimit="10" stroke-linecap="round"/>
<path d="M413.418 171.436L359.745 169.244V90.0491L387.996 85.9701L413.418 171.436Z" fill="black"/>
<path d="M387.158 85.297C387.158 85.297 397.647 109.953 406.637 143.19" stroke="black" stroke-miterlimit="10" stroke-linecap="round"/>
<path d="M292.214 183.714C292.214 183.714 304.843 189.327 334.136 167.226L321.682 153.369L292.214 183.714Z" fill="#BA6F4C"/>
<path d="M384.214 127.936C384.748 127.843 388.03 130.916 388.611 131.271C394.199 134.684 398.832 135.18 405.139 136.379C417.579 138.744 426.35 158.573 427.615 162.715C429.11 167.61 431.705 176.028 433.2 180.923C433.2 180.923 430.748 194.545 414.997 194.239L407.104 177.4C407.104 177.4 398.158 197.571 397.632 199.15C397.106 200.729 403.07 220.374 403.07 220.374C403.07 220.374 356.062 238.441 328.699 228.706C328.699 228.706 337.98 193.244 335.486 192.093C333.125 191.003 328.221 186.735 334.136 167.227C334.136 167.227 324.226 161.439 321.858 146.178C321.858 146.178 334.75 134.251 342.906 133.987C351.061 133.724 384.201 127.938 384.214 127.936Z" fill="#9EC68A"/>
<path d="M364.481 141.486C364.481 141.486 367.901 150.563 378.294 145.433C386.855 141.207 389.697 134.315 390.435 132.012C386.863 129.973 384.213 127.936 384.213 127.936C384.213 127.936 369.645 130.479 357.447 132.271C356.787 133.64 350.898 146.47 364.481 141.486Z" fill="white"/>
<path d="M383.293 110.966L384.214 127.936C384.214 127.936 376.321 139.907 366.849 138.592L365.007 127.805L383.293 110.966Z" fill="#BA6F4C"/>
<path d="M367.254 307.55L372.896 378.589L374.127 424.982C374.127 424.982 384.372 431.608 389.651 421.9C389.651 421.9 399.119 373.751 398.056 357.198C396.993 340.646 398.86 321.161 398.86 321.161L367.254 307.55Z" fill="#BA6F4C"/>
<path d="M327.186 417.879C327.186 417.879 298.251 442.786 300.855 442.786C303.459 442.786 315.757 441.032 323.714 439.103C331.671 437.174 334.854 432.087 334.854 432.087L335.433 436.998L340.931 436.296C340.931 436.296 347.152 423.141 342.812 415.774C338.471 408.407 327.186 417.879 327.186 417.879Z" fill="black"/>
<path d="M331.237 433.315L335.433 436.998L337.458 430.771L334.203 429.982L331.237 433.315Z" fill="black"/>
<path d="M374.089 418.844C374.089 418.844 363.281 451.186 366.928 451.601C373.872 452.39 382.3 444.716 384.904 439.805C387.508 434.894 387.219 427.176 387.219 427.176L384.759 432.964H389.823C389.823 432.964 392.572 430.333 390.402 417.704C390.402 417.704 374.089 433.709 374.089 418.844Z" fill="black"/>
<path d="M329.356 305.27L327.186 417.879C327.186 417.879 337.169 424.72 342.811 415.774C342.811 415.774 354.096 370.52 353.662 354.733C353.228 338.947 355.832 320.529 355.832 320.529L329.356 305.27Z" fill="#BA6F4C"/>
<path d="M333.434 207.394C333.434 207.394 346.063 230.547 400.263 210.551C400.263 210.551 421.311 265.277 404.999 326.318C404.999 326.318 358.692 347.893 314.491 322.108C314.491 322.108 321.858 246.334 333.434 207.394Z" fill="black"/>
<path d="M334.136 130.041C334.136 130.041 294.056 158.281 291.074 163.192C288.092 168.103 281.865 179.329 290.635 183.539C299.405 187.749 334.223 149.423 342.642 136.443L334.136 130.041Z" fill="#BA6F4C"/>
<path d="M298.003 182.136C298.003 182.136 310.501 175.339 325.41 158.325" stroke="black" stroke-miterlimit="10" stroke-linecap="round"/>
<path d="M336.212 192.546C336.212 192.546 369.392 208.446 389.914 190.906" stroke="black" stroke-miterlimit="10" stroke-linecap="round"/>
<path d="M407.104 177.4L399.963 166.211" stroke="black" stroke-miterlimit="10" stroke-linecap="round"/>
<path d="M334.136 167.227L338.17 159.158" stroke="black" stroke-miterlimit="10" stroke-linecap="round"/>
<path d="M355.721 121.064C353.467 120.849 351.32 123.211 350.461 122.942C349.777 122.728 348.855 119.486 348.509 118.176C349.811 110.57 348.917 104.669 347.134 106.25C347.039 106.335 346.927 106.512 346.81 106.74C346.547 104.327 345.862 103.12 344.934 103.943C344.68 104.168 344.319 105.012 343.996 105.886C343.717 103.613 343.044 102.501 342.143 103.299C341.699 103.692 340.935 105.962 340.604 106.992C340.426 106.775 340.165 106.683 339.835 106.573C338.547 106.144 335.577 117.271 335.434 117.844C335.291 118.417 332.142 130.868 332.142 130.868C330.997 135.376 339.995 137.445 342.643 136.444C345.291 135.442 351.32 128.936 351.32 128.936C351.313 128.924 351.303 128.913 351.296 128.901C351.504 128.6 351.808 128.141 352.232 127.451C353.144 125.966 357.76 122.245 357.867 121.923C357.974 121.601 357.975 121.278 355.721 121.064Z" fill="#BA6F4C"/>
<path d="M357.868 121.922C357.975 121.6 357.975 121.278 355.721 121.063C353.467 120.848 351.32 123.21 350.461 122.941C349.777 122.727 348.855 119.485 348.509 118.175C349.811 110.569 348.917 104.668 347.134 106.249C347.039 106.334 346.927 106.511 346.81 106.739C346.547 104.326 345.862 103.119 344.934 103.942C344.68 104.167 344.319 105.011 343.996 105.885C343.865 104.822 343.646 104.026 343.36 103.547C343.066 111.312 343.926 123.085 350.819 129.466C351.131 129.139 351.321 128.935 351.321 128.935C351.314 128.923 351.304 128.912 351.297 128.9C351.505 128.599 351.809 128.14 352.233 127.45C353.145 125.966 357.761 122.244 357.868 121.922Z" fill="black"/>
<path d="M381.254 114.189L383.293 110.966L365.007 127.805L366.402 135.976C373.995 134.735 377.55 122.467 381.254 114.189Z" fill="black"/>
<path d="M346.315 95.132C346.315 95.132 340.907 125.872 358.741 132.081C376.576 138.29 382.849 108.956 382.887 98.673C382.926 88.39 378.14 82.999 365.441 81.714C346.655 79.812 346.315 95.132 346.315 95.132Z" fill="#BA6F4C"/>
<path d="M386.849 83.268C383.2 77.989 377.84 75.085 364.4 75.329C354.17 75.515 347.749 82.346 345.567 85.892C344.86 87.041 343.113 90.288 346.477 93.774C346.477 93.774 346.589 91.309 348.864 88.564C348.864 88.564 370.152 100.102 378.658 98.408L380.686 106.385C380.686 106.385 383.564 102.301 386.521 100.98C386.521 100.98 390.498 88.548 386.849 83.268Z" fill="black"/>
<path d="M390.227 108.652C388.842 112.665 385.453 115.157 382.657 114.218C379.861 113.28 378.718 109.266 380.103 105.253C381.488 101.24 384.877 98.7481 387.673 99.6871C390.468 100.625 391.612 104.639 390.227 108.652Z" fill="#BA6F4C"/>
<path d="M363.953 108.317C363.936 109.372 363.379 110.221 362.708 110.211C362.037 110.202 361.506 109.338 361.523 108.283C361.54 107.227 362.097 106.379 362.768 106.389C363.439 106.398 363.969 107.261 363.953 108.317Z" fill="black"/>
<path d="M349.889 108.273C349.928 109.266 349.469 110.091 348.864 110.116C348.258 110.141 347.735 109.357 347.696 108.364C347.657 107.371 348.116 106.546 348.721 106.521C349.326 106.495 349.849 107.28 349.889 108.273Z" fill="black"/>
<path d="M368.492 100.242C368.492 100.242 363.615 100.961 363.59 96.3771" stroke="black" stroke-miterlimit="10" stroke-linecap="round"/>
<path d="M352.217 98.8101C352.217 98.8101 350.716 102.971 347.259 100.281" stroke="black" stroke-miterlimit="10" stroke-linecap="round"/>
<path d="M363.692 125.333C363.692 125.333 365.698 118.974 370.38 122.998L363.692 125.333Z" fill="black"/>
<path d="M387.603 104.909C387.603 104.909 384.582 101.949 382.507 106.869C382.507 106.869 384.248 108.974 382.967 110.454C382.967 110.454 384.782 110.992 385.797 109.426" stroke="black" stroke-miterlimit="10" stroke-linecap="round" stroke-linejoin="round"/>
<path d="M386.093 106.745C386.093 106.745 385.988 105.615 384.828 104.258" stroke="black" stroke-miterlimit="10" stroke-linecap="round" stroke-linejoin="round"/>
<path d="M351.727 112.201C351.076 112.925 350.892 113.827 351.132 114.83C351.369 115.821 352.32 116.475 353.324 116.52" stroke="black" stroke-miterlimit="10" stroke-linecap="round"/>
<path d="M384.871 114.221C384.871 115.729 383.649 116.951 382.141 116.951C380.633 116.951 379.411 115.729 379.411 114.221C379.411 112.713 380.633 111.491 382.141 111.491C383.649 111.491 384.871 112.714 384.871 114.221Z" fill="white"/>
<path d="M339.047 134.601C339.047 134.601 340.099 136.881 342.643 136.443" stroke="black" stroke-miterlimit="10" stroke-linecap="round"/>
<path d="M340.604 106.992C340.604 106.992 342.511 108.006 339.42 118.925C339.42 118.925 341.328 125.832 340.801 127.147C340.275 128.462 337.644 130.655 336.854 130.743" stroke="black" stroke-miterlimit="10" stroke-linecap="round"/>
<path d="M345.976 123.814C345.976 123.814 343.345 126.796 343.257 130.918" stroke="black" stroke-miterlimit="10" stroke-linecap="round"/>
<path d="M343.995 105.886C343.995 105.886 344.616 114.255 343.3 118.793" stroke="black" stroke-miterlimit="10" stroke-linecap="round"/>
<path d="M260.514 455.211C260.514 459.096 251.461 462.246 240.294 462.246C229.127 462.246 220.074 459.096 220.074 455.211C220.074 451.326 229.127 448.176 240.294 448.176C251.462 448.176 260.514 451.326 260.514 455.211Z" fill="#DFDFEB"/>
<path d="M239.841 350.569C239.841 350.569 233.726 351.141 235.807 335.309C237.784 320.269 245.366 309.305 245.945 309.261C245.945 309.261 256.849 324.902 250.014 338.466C243.18 352.03 239.841 350.569 239.841 350.569Z" fill="#7E9E6E"/>
<path d="M289.89 327.68C289.89 327.68 275.884 344.467 241.795 356.294C241.795 356.294 241.585 351.819 253.374 340.988C265.162 330.158 291.521 322.542 289.89 327.68Z" fill="#7E9E6E"/>
<path d="M289.89 327.68C289.89 327.68 263.183 331.872 241.795 356.294C241.795 356.294 239.694 358.965 239.433 364.711" stroke="black" stroke-miterlimit="10" stroke-linecap="round"/>
<path d="M189.383 360.174C189.383 360.174 203.389 376.961 237.478 388.788C237.478 388.788 237.688 384.313 225.899 373.482C214.111 362.651 187.752 355.035 189.383 360.174Z" fill="#7E9E6E"/>
<path d="M189.383 360.174C189.383 360.174 216.09 364.366 237.478 388.788C237.478 388.788 239.579 391.459 239.84 397.205" stroke="black" stroke-miterlimit="10" stroke-linecap="round"/>
<path d="M208.302 394.539C208.302 394.539 217.618 402.155 237.834 396.059C237.834 396.059 237.573 392.163 230.012 388.551C222.45 384.94 206.947 390.951 208.302 394.539Z" fill="#7E9E6E"/>
<path d="M208.302 394.539C208.302 394.539 223.71 385.458 237.834 396.059C237.834 396.059 239.244 397.331 239.878 402.083" stroke="black" stroke-miterlimit="10" stroke-linecap="round"/>
<path d="M286.289 354.49C286.289 354.49 276.502 380.83 242.412 392.656C242.412 392.656 241.238 377.788 253.026 366.957C264.815 356.127 287.92 349.352 286.289 354.49Z" fill="#7E9E6E"/>
<path d="M286.289 354.49C286.289 354.49 261.414 359.808 242.412 392.656C242.412 392.656 240.231 396.605 239.97 402.351" stroke="black" stroke-miterlimit="10" stroke-linecap="round"/>
<path d="M234.006 358.642C234.006 358.642 231.139 363.304 219.844 361.852C208.549 360.4 196.337 346.974 188.711 349.411C188.711 349.411 207.466 342.688 234.006 358.642Z" fill="#7E9E6E"/>
<path d="M241.873 422.615C239.076 399.231 237.887 371.104 241.161 340.734C241.161 340.734 241.596 332.678 245.945 309.261" stroke="black" stroke-miterlimit="10" stroke-linecap="round"/>
<path d="M191.042 348.805C191.042 348.805 210.006 344.207 234.006 358.642C239.82 362.139 239.556 368.732 239.186 373.87" stroke="black" stroke-miterlimit="10" stroke-linecap="round"/>
<path d="M218.155 412.943L224.731 453.424C224.731 455.905 231.746 457.915 240.399 457.915C249.052 457.915 256.068 455.904 256.068 453.424L262.644 412.943H218.155Z" fill="#8B00FF"/>
<path d="M240.399 417.435C252.684 417.435 262.643 415.424 262.643 412.944C262.643 410.464 252.684 408.453 240.399 408.453C228.114 408.453 218.155 410.464 218.155 412.944C218.155 415.424 228.114 417.435 240.399 417.435Z" fill="black"/>
<path d="M264.859 50.713C281.86 51.176 295.926 64.793 296.904 81.772C297.479 91.756 293.61 100.841 287.099 107.25C286.137 108.197 285.69 109.547 285.915 110.878L288.36 125.348L273.315 116.582C272.458 116.083 271.448 115.899 270.476 116.096C266.798 116.838 262.901 116.974 258.885 116.366C244.022 114.114 232.426 101.81 231.055 86.839C229.228 66.887 245.165 50.176 264.859 50.713Z" fill="#D3DDF7"/>
<path d="M263.031 98.4731C262.574 98.4731 262.224 98.3281 261.981 98.0391C261.737 97.7501 261.616 97.3471 261.616 96.8291C261.616 96.3421 261.745 95.9461 262.004 95.6421C262.262 95.3381 262.605 95.1851 263.031 95.1851C263.517 95.1851 263.876 95.3301 264.104 95.6191C264.333 95.9091 264.447 96.3121 264.447 96.8291C264.447 97.2861 264.325 97.6741 264.081 97.9941C263.837 98.3131 263.488 98.4731 263.031 98.4731ZM262.75 87.1011C262.715 86.1581 262.681 85.1911 262.646 84.2011C262.611 83.2121 262.585 82.2221 262.568 81.2321C262.55 80.2431 262.558 79.2301 262.594 78.1951V66.1381H263.74L263.792 78.1951C263.792 79.2301 263.783 80.2431 263.766 81.2321C263.748 82.2221 263.722 83.2121 263.688 84.2011C263.652 85.1911 263.618 86.1581 263.583 87.1011H262.75Z" fill="black"/>
<path d="M118.77 243V230.316H121.524L128.174 239.376L127.576 239.285C127.516 238.887 127.467 238.506 127.431 238.144C127.395 237.781 127.359 237.425 127.322 237.075C127.298 236.725 127.274 236.368 127.25 236.006C127.238 235.643 127.226 235.251 127.214 234.828C127.214 234.405 127.214 233.946 127.214 233.451V230.316H130.203V243H127.413L120.473 233.65L121.397 233.777C121.458 234.357 121.506 234.852 121.542 235.263C121.591 235.661 121.627 236.018 121.651 236.332C121.687 236.646 121.711 236.93 121.723 237.184C121.735 237.437 121.742 237.691 121.742 237.945C121.754 238.186 121.76 238.458 121.76 238.76V243H118.77ZM136.629 243.163C135.82 243.163 135.095 242.952 134.455 242.529C133.827 242.094 133.326 241.502 132.951 240.753C132.577 239.992 132.389 239.134 132.389 238.18C132.389 237.202 132.577 236.338 132.951 235.589C133.326 234.84 133.839 234.254 134.491 233.831C135.144 233.397 135.887 233.179 136.72 233.179C137.179 233.179 137.596 233.246 137.97 233.378C138.357 233.511 138.695 233.699 138.985 233.94C139.275 234.17 139.523 234.441 139.728 234.755C139.933 235.057 140.084 235.384 140.181 235.734L139.583 235.661V233.378H142.464V243H139.529V240.681L140.181 240.663C140.084 241.001 139.927 241.321 139.71 241.623C139.492 241.925 139.227 242.191 138.913 242.42C138.598 242.65 138.248 242.831 137.862 242.964C137.475 243.097 137.064 243.163 136.629 243.163ZM137.427 240.717C137.874 240.717 138.26 240.614 138.586 240.409C138.913 240.204 139.166 239.914 139.347 239.539C139.529 239.153 139.619 238.7 139.619 238.18C139.619 237.661 139.529 237.214 139.347 236.839C139.166 236.453 138.913 236.157 138.586 235.951C138.26 235.734 137.874 235.625 137.427 235.625C136.992 235.625 136.611 235.734 136.285 235.951C135.971 236.157 135.723 236.453 135.542 236.839C135.361 237.214 135.27 237.661 135.27 238.18C135.27 238.7 135.361 239.153 135.542 239.539C135.723 239.914 135.971 240.204 136.285 240.409C136.611 240.614 136.992 240.717 137.427 240.717ZM148.664 243.199C147.831 243.199 147.088 242.988 146.436 242.565C145.795 242.13 145.288 241.538 144.913 240.789C144.539 240.028 144.352 239.165 144.352 238.198C144.352 237.232 144.539 236.374 144.913 235.625C145.288 234.864 145.801 234.266 146.454 233.831C147.106 233.397 147.855 233.179 148.701 233.179C149.135 233.179 149.552 233.246 149.951 233.378C150.349 233.511 150.712 233.692 151.038 233.922C151.364 234.151 151.63 234.417 151.835 234.719C152.041 235.009 152.161 235.311 152.198 235.625L151.509 235.788V229.591H154.426V243H151.727L151.563 240.808L152.143 240.898C152.107 241.2 151.986 241.49 151.781 241.768C151.588 242.046 151.334 242.293 151.02 242.511C150.706 242.716 150.343 242.879 149.933 243C149.534 243.133 149.111 243.199 148.664 243.199ZM149.407 240.789C149.854 240.789 150.241 240.681 150.567 240.463C150.893 240.246 151.141 239.944 151.31 239.557C151.491 239.171 151.582 238.718 151.582 238.198C151.582 237.667 151.491 237.208 151.31 236.821C151.141 236.435 150.893 236.133 150.567 235.915C150.241 235.698 149.854 235.589 149.407 235.589C148.96 235.589 148.574 235.698 148.248 235.915C147.933 236.133 147.686 236.435 147.505 236.821C147.323 237.208 147.233 237.667 147.233 238.198C147.233 238.718 147.323 239.171 147.505 239.557C147.686 239.944 147.933 240.246 148.248 240.463C148.574 240.681 148.96 240.789 149.407 240.789ZM160.429 243.163C159.62 243.163 158.895 242.952 158.255 242.529C157.627 242.094 157.126 241.502 156.751 240.753C156.377 239.992 156.189 239.134 156.189 238.18C156.189 237.202 156.377 236.338 156.751 235.589C157.126 234.84 157.639 234.254 158.291 233.831C158.944 233.397 159.686 233.179 160.52 233.179C160.979 233.179 161.396 233.246 161.77 233.378C162.157 233.511 162.495 233.699 162.785 233.94C163.075 234.17 163.323 234.441 163.528 234.755C163.733 235.057 163.884 235.384 163.981 235.734L163.383 235.661V233.378H166.264V243H163.329V240.681L163.981 240.663C163.884 241.001 163.727 241.321 163.51 241.623C163.292 241.925 163.027 242.191 162.712 242.42C162.398 242.65 162.048 242.831 161.662 242.964C161.275 243.097 160.864 243.163 160.429 243.163ZM161.227 240.717C161.674 240.717 162.06 240.614 162.386 240.409C162.712 240.204 162.966 239.914 163.147 239.539C163.329 239.153 163.419 238.7 163.419 238.18C163.419 237.661 163.329 237.214 163.147 236.839C162.966 236.453 162.712 236.157 162.386 235.951C162.06 235.734 161.674 235.625 161.227 235.625C160.792 235.625 160.411 235.734 160.085 235.951C159.771 236.157 159.523 236.453 159.342 236.839C159.161 237.214 159.07 237.661 159.07 238.18C159.07 238.7 159.161 239.153 159.342 239.539C159.523 239.914 159.771 240.204 160.085 240.409C160.411 240.614 160.792 240.717 161.227 240.717ZM178.178 243.163C177.368 243.163 176.643 242.952 176.003 242.529C175.375 242.094 174.874 241.502 174.499 240.753C174.125 239.992 173.938 239.134 173.938 238.18C173.938 237.202 174.125 236.338 174.499 235.589C174.874 234.84 175.387 234.254 176.039 233.831C176.692 233.397 177.435 233.179 178.268 233.179C178.727 233.179 179.144 233.246 179.518 233.378C179.905 233.511 180.243 233.699 180.533 233.94C180.823 234.17 181.071 234.441 181.276 234.755C181.481 235.057 181.632 235.384 181.729 235.734L181.131 235.661V233.378H184.012V243H181.077V240.681L181.729 240.663C181.632 241.001 181.475 241.321 181.258 241.623C181.041 241.925 180.775 242.191 180.461 242.42C180.147 242.65 179.796 242.831 179.41 242.964C179.023 243.097 178.612 243.163 178.178 243.163ZM178.975 240.717C179.422 240.717 179.808 240.614 180.135 240.409C180.461 240.204 180.714 239.914 180.896 239.539C181.077 239.153 181.167 238.7 181.167 238.18C181.167 237.661 181.077 237.214 180.896 236.839C180.714 236.453 180.461 236.157 180.135 235.951C179.808 235.734 179.422 235.625 178.975 235.625C178.54 235.625 178.159 235.734 177.833 235.951C177.519 236.157 177.272 236.453 177.09 236.839C176.909 237.214 176.819 237.661 176.819 238.18C176.819 238.7 176.909 239.153 177.09 239.539C177.272 239.914 177.519 240.204 177.833 240.409C178.159 240.614 178.54 240.717 178.975 240.717ZM193.003 246.986V240.681L193.637 240.826C193.589 241.128 193.462 241.424 193.257 241.713C193.051 241.991 192.791 242.239 192.477 242.456C192.175 242.674 191.831 242.849 191.445 242.982C191.058 243.103 190.659 243.163 190.249 243.163C189.403 243.163 188.654 242.952 188.002 242.529C187.349 242.094 186.836 241.502 186.462 240.753C186.087 240.004 185.9 239.147 185.9 238.18C185.9 237.202 186.081 236.338 186.443 235.589C186.818 234.84 187.325 234.254 187.966 233.831C188.618 233.397 189.349 233.179 190.158 233.179C190.617 233.179 191.052 233.246 191.463 233.378C191.873 233.511 192.242 233.686 192.568 233.904C192.894 234.121 193.16 234.375 193.365 234.665C193.571 234.943 193.685 235.239 193.71 235.553L193.057 235.661L193.166 233.378H195.92V246.986H193.003ZM190.901 240.717C191.348 240.717 191.734 240.614 192.061 240.409C192.387 240.204 192.64 239.914 192.822 239.539C193.003 239.153 193.093 238.7 193.093 238.18C193.093 237.661 193.003 237.214 192.822 236.839C192.64 236.453 192.387 236.157 192.061 235.951C191.734 235.734 191.348 235.625 190.901 235.625C190.466 235.625 190.086 235.734 189.759 235.951C189.433 236.157 189.18 236.453 188.998 236.839C188.829 237.226 188.745 237.673 188.745 238.18C188.745 238.7 188.829 239.153 188.998 239.539C189.18 239.914 189.433 240.204 189.759 240.409C190.086 240.614 190.466 240.717 190.901 240.717ZM201.777 243.199C201.064 243.199 200.454 243.048 199.946 242.746C199.451 242.432 199.065 241.985 198.787 241.405C198.521 240.826 198.388 240.131 198.388 239.322V233.378H201.305V238.923C201.305 239.31 201.366 239.642 201.487 239.92C201.607 240.197 201.789 240.415 202.03 240.572C202.272 240.717 202.562 240.789 202.9 240.789C203.154 240.789 203.383 240.747 203.588 240.663C203.806 240.578 203.987 240.463 204.132 240.318C204.289 240.161 204.41 239.986 204.494 239.793C204.579 239.587 204.621 239.364 204.621 239.122V233.378H207.539V243H204.803L204.676 241.025L205.219 240.808C205.074 241.267 204.833 241.677 204.494 242.04C204.156 242.39 203.752 242.674 203.28 242.891C202.809 243.097 202.308 243.199 201.777 243.199ZM210.286 243V233.378H213.185V243H210.286ZM211.735 231.476C211.192 231.476 210.763 231.349 210.449 231.095C210.147 230.83 209.996 230.455 209.996 229.972C209.996 229.537 210.153 229.181 210.467 228.903C210.781 228.625 211.204 228.486 211.735 228.486C212.279 228.486 212.702 228.619 213.004 228.885C213.306 229.138 213.457 229.501 213.457 229.972C213.457 230.419 213.3 230.781 212.985 231.059C212.683 231.337 212.267 231.476 211.735 231.476ZM216.163 246.624L215.329 245.591C215.812 245.374 216.199 245.096 216.489 244.758C216.779 244.431 216.924 244.148 216.924 243.906C216.924 243.797 216.893 243.676 216.833 243.544C216.785 243.423 216.652 243.284 216.434 243.127C216.156 242.921 215.969 242.722 215.873 242.529C215.776 242.324 215.728 242.1 215.728 241.858C215.728 241.484 215.861 241.188 216.126 240.971C216.404 240.753 216.76 240.644 217.195 240.644C217.546 240.644 217.86 240.741 218.138 240.934C218.427 241.128 218.651 241.393 218.808 241.732C218.977 242.07 219.062 242.462 219.062 242.909C219.062 243.32 218.989 243.713 218.844 244.087C218.699 244.474 218.494 244.83 218.228 245.156C217.974 245.494 217.666 245.79 217.304 246.044C216.954 246.298 216.573 246.491 216.163 246.624ZM146.822 266.163C146.013 266.163 145.288 265.952 144.647 265.529C144.019 265.094 143.518 264.502 143.144 263.753C142.769 262.992 142.582 262.134 142.582 261.18C142.582 260.202 142.769 259.338 143.144 258.589C143.518 257.84 144.031 257.254 144.684 256.831C145.336 256.397 146.079 256.179 146.912 256.179C147.371 256.179 147.788 256.246 148.163 256.378C148.549 256.511 148.888 256.699 149.177 256.94C149.467 257.17 149.715 257.441 149.92 257.755C150.126 258.057 150.277 258.384 150.373 258.734L149.775 258.661V256.378H152.656V266H149.721V263.681L150.373 263.663C150.277 264.001 150.12 264.321 149.902 264.623C149.685 264.925 149.419 265.191 149.105 265.42C148.791 265.65 148.441 265.831 148.054 265.964C147.667 266.097 147.257 266.163 146.822 266.163ZM147.619 263.717C148.066 263.717 148.453 263.614 148.779 263.409C149.105 263.204 149.359 262.914 149.54 262.539C149.721 262.153 149.812 261.7 149.812 261.18C149.812 260.661 149.721 260.214 149.54 259.839C149.359 259.453 149.105 259.157 148.779 258.951C148.453 258.734 148.066 258.625 147.619 258.625C147.184 258.625 146.804 258.734 146.478 258.951C146.164 259.157 145.916 259.453 145.735 259.839C145.553 260.214 145.463 260.661 145.463 261.18C145.463 261.7 145.553 262.153 145.735 262.539C145.916 262.914 146.164 263.204 146.478 263.409C146.804 263.614 147.184 263.717 147.619 263.717ZM155.378 266V256.378H158.277V266H155.378ZM156.827 254.476C156.284 254.476 155.855 254.349 155.541 254.095C155.239 253.83 155.088 253.455 155.088 252.972C155.088 252.537 155.245 252.181 155.559 251.903C155.873 251.625 156.296 251.486 156.827 251.486C157.371 251.486 157.794 251.619 158.096 251.885C158.398 252.138 158.549 252.501 158.549 252.972C158.549 253.419 158.392 253.781 158.078 254.059C157.776 254.337 157.359 254.476 156.827 254.476ZM161.001 266V256.378H163.755L163.846 258.335L163.266 258.553C163.399 258.118 163.634 257.725 163.973 257.375C164.323 257.013 164.74 256.723 165.223 256.505C165.706 256.288 166.213 256.179 166.745 256.179C167.47 256.179 168.08 256.33 168.575 256.632C169.07 256.922 169.445 257.363 169.698 257.955C169.952 258.535 170.079 259.247 170.079 260.093V266H167.162V260.329C167.162 259.942 167.107 259.622 166.999 259.368C166.89 259.114 166.721 258.927 166.491 258.806C166.274 258.674 166.002 258.613 165.676 258.625C165.422 258.625 165.187 258.668 164.969 258.752C164.752 258.825 164.564 258.939 164.407 259.096C164.25 259.241 164.124 259.41 164.027 259.604C163.942 259.797 163.9 260.008 163.9 260.238V266H162.469C162.13 266 161.84 266 161.599 266C161.357 266 161.158 266 161.001 266ZM176.145 266.199C175.311 266.199 174.568 265.988 173.916 265.565C173.276 265.13 172.768 264.538 172.394 263.789C172.02 263.028 171.832 262.165 171.832 261.198C171.832 260.232 172.02 259.374 172.394 258.625C172.768 257.864 173.282 257.266 173.934 256.831C174.586 256.397 175.335 256.179 176.181 256.179C176.616 256.179 177.033 256.246 177.431 256.378C177.83 256.511 178.192 256.692 178.518 256.922C178.845 257.151 179.11 257.417 179.316 257.719C179.521 258.009 179.642 258.311 179.678 258.625L178.99 258.788V252.591H181.907V266H179.207L179.044 263.808L179.624 263.898C179.588 264.2 179.467 264.49 179.261 264.768C179.068 265.046 178.814 265.293 178.5 265.511C178.186 265.716 177.824 265.879 177.413 266C177.015 266.133 176.592 266.199 176.145 266.199ZM176.888 263.789C177.335 263.789 177.721 263.681 178.047 263.463C178.374 263.246 178.621 262.944 178.79 262.557C178.971 262.171 179.062 261.718 179.062 261.198C179.062 260.667 178.971 260.208 178.79 259.821C178.621 259.435 178.374 259.133 178.047 258.915C177.721 258.698 177.335 258.589 176.888 258.589C176.441 258.589 176.054 258.698 175.728 258.915C175.414 259.133 175.166 259.435 174.985 259.821C174.804 260.208 174.713 260.667 174.713 261.198C174.713 261.718 174.804 262.171 174.985 262.557C175.166 262.944 175.414 263.246 175.728 263.463C176.054 263.681 176.441 263.789 176.888 263.789ZM187.91 266.163C187.101 266.163 186.376 265.952 185.736 265.529C185.107 265.094 184.606 264.502 184.232 263.753C183.857 262.992 183.67 262.134 183.67 261.18C183.67 260.202 183.857 259.338 184.232 258.589C184.606 257.84 185.119 257.254 185.772 256.831C186.424 256.397 187.167 256.179 188.001 256.179C188.46 256.179 188.876 256.246 189.251 256.378C189.637 256.511 189.976 256.699 190.265 256.94C190.555 257.17 190.803 257.441 191.008 257.755C191.214 258.057 191.365 258.384 191.461 258.734L190.863 258.661V256.378H193.744V266H190.809V263.681L191.461 263.663C191.365 264.001 191.208 264.321 190.99 264.623C190.773 264.925 190.507 265.191 190.193 265.42C189.879 265.65 189.529 265.831 189.142 265.964C188.756 266.097 188.345 266.163 187.91 266.163ZM188.707 263.717C189.154 263.717 189.541 263.614 189.867 263.409C190.193 263.204 190.447 262.914 190.628 262.539C190.809 262.153 190.9 261.7 190.9 261.18C190.9 260.661 190.809 260.214 190.628 259.839C190.447 259.453 190.193 259.157 189.867 258.951C189.541 258.734 189.154 258.625 188.707 258.625C188.272 258.625 187.892 258.734 187.566 258.951C187.252 259.157 187.004 259.453 186.823 259.839C186.642 260.214 186.551 260.661 186.551 261.18C186.551 261.7 186.642 262.153 186.823 262.539C187.004 262.914 187.252 263.204 187.566 263.409C187.892 263.614 188.272 263.717 188.707 263.717Z" fill="white"/>
</svg>
