<svg width="511" height="512" viewBox="0 0 511 512" fill="none" xmlns="http://www.w3.org/2000/svg">
  <path fill-rule="evenodd" clip-rule="evenodd"
    d="M0 38C0 17.0132 17.0132 0 38 0H291L390 98V227.105L446.012 156.13C452.171 148.326 463.49 146.992 471.293 153.151L503.478 178.551C511.282 184.709 512.615 196.028 506.457 203.832L390 351.397V474C390 494.987 372.987 512 352 512H38C17.0132 512 0 494.987 0 474V38ZM390 327.185L446.98 254.984L410.87 226.486L390 252.932V327.185ZM374 273.206V347.459L335.469 396.282L299.359 367.785L374 273.206ZM374 247.379L324.834 309.679C323.81 309.242 322.683 309 321.5 309H164.5C159.806 309 156 312.806 156 317.5C156 322.194 159.806 326 164.5 326H311.953L281.224 364.938L261.098 437H164.5C159.806 437 156 440.806 156 445.5C156 450.194 159.806 454 164.5 454H333.5C338.194 454 342 450.194 342 445.5C342 440.806 338.194 437 333.5 437H298.693L341.049 413.425L374 371.672V472C374 484.703 363.703 495 351 495H279H39C26.2974 495 16 484.703 16 472V39C16 26.2975 26.2974 16 39 16H279V86C279 99.8071 290.193 111 304 111H374V247.379ZM363 94.5L295.5 26.5V87.5C295.5 91.366 298.634 94.5 302.5 94.5H363ZM55 65C50.5817 65 47 68.5817 47 73C47 77.4183 50.5818 81 55 81H185C189.418 81 193 77.4183 193 73C193 68.5817 189.418 65 185 65H55ZM47 140C47 135.029 51.0294 131 56 131H116C120.971 131 125 135.029 125 140V200C125 204.971 120.971 209 116 209H56C51.0294 209 47 204.971 47 200V140ZM63 147H109V193H63V147ZM48 268C48 263.029 52.0294 259 57 259H117C121.971 259 126 263.029 126 268V328C126 332.971 121.971 337 117 337H57C52.0294 337 48 332.971 48 328V268ZM64 275H110V321H64V275ZM57 387C52.0294 387 48 391.029 48 396V456C48 460.971 52.0294 465 57 465H117C121.971 465 126 460.971 126 456V396C126 391.029 121.971 387 117 387H57ZM110 403H64V449H110V403ZM164.5 139C159.806 139 156 142.806 156 147.5C156 152.194 159.806 156 164.5 156H252.5C257.194 156 261 152.194 261 147.5C261 142.806 257.194 139 252.5 139H164.5ZM156 189.5C156 184.806 159.806 181 164.5 181H334.5C339.194 181 343 184.806 343 189.5C343 194.194 339.194 198 334.5 198H164.5C159.806 198 156 194.194 156 189.5ZM164.5 267C159.806 267 156 270.806 156 275.5C156 280.194 159.806 284 164.5 284H252.5C257.194 284 261 280.194 261 275.5C261 270.806 257.194 267 252.5 267H164.5ZM164.5 395C159.806 395 156 398.806 156 403.5C156 408.194 159.806 412 164.5 412H252.5C257.194 412 261 408.194 261 403.5C261 398.806 257.194 395 252.5 395H164.5ZM459.192 165.257L495.301 193.754L475.477 218.874L439.367 190.377L459.192 165.257ZM466.185 230.649L430.075 202.152L420.782 213.927L456.892 242.424L466.185 230.649ZM293.433 383.172L280.636 429.443L322.666 406.242L293.433 383.172Z"
    fill="#310660" />
</svg>