<svg width="512" height="404" viewBox="0 0 512 404" fill="none" xmlns="http://www.w3.org/2000/svg">
<path fill-rule="evenodd" clip-rule="evenodd" d="M186 93C186 144.362 144.362 186 93 186C41.6375 186 0 144.362 0 93C0 41.6375 41.6375 0 93 0C144.362 0 186 41.6375 186 93ZM21.39 93C21.39 132.549 53.4509 164.61 93 164.61C132.549 164.61 164.61 132.549 164.61 93C164.61 53.4509 132.549 21.39 93 21.39C53.4509 21.39 21.39 53.4509 21.39 93ZM186 311C186 362.362 144.362 404 93 404C41.6375 404 0 362.362 0 311C0 259.638 41.6375 218 93 218C144.362 218 186 259.638 186 311ZM21.39 311C21.39 350.549 53.4509 382.61 93 382.61C132.549 382.61 164.61 350.549 164.61 311C164.61 271.451 132.549 239.39 93 239.39C53.4509 239.39 21.39 271.451 21.39 311ZM223 30C223 23.3726 228.373 18 235 18H500C506.627 18 512 23.3726 512 30V156C512 162.627 506.627 168 500 168H235C228.373 168 223 162.627 223 156V30ZM244 38H491V147H244V38ZM286 72C286 66.4771 290.477 62 296 62H457C462.523 62 467 66.4771 467 72C467 77.5229 462.523 82 457 82H296C290.477 82 286 77.5229 286 72ZM296 104C290.477 104 286 108.477 286 114C286 119.523 290.477 124 296 124H400C405.523 124 410 119.523 410 114C410 108.477 405.523 104 400 104H296ZM286 293C286 287.477 290.477 283 296 283H457C462.523 283 467 287.477 467 293C467 298.523 462.523 303 457 303H296C290.477 303 286 298.523 286 293ZM296 325C290.477 325 286 329.477 286 335C286 340.523 290.477 345 296 345H400C405.523 345 410 340.523 410 335C410 329.477 405.523 325 400 325H296ZM223 248C223 241.373 228.373 236 235 236H500C506.627 236 512 241.373 512 248V374C512 380.627 506.627 386 500 386H412.5C406.701 386 402 381.299 402 375.5C402 369.701 406.701 365 412.5 365H491V256H244V365H321.5C327.299 365 332 369.701 332 375.5C332 381.299 327.299 386 321.5 386H235C228.373 386 223 380.627 223 374V248ZM83.2478 333.821C87.1232 336.976 92.6487 336.748 96.2482 333.503C96.7705 333.076 97.2591 332.593 97.705 332.053L121.331 303.473C125.025 299.003 124.397 292.385 119.928 288.69C115.458 284.995 108.84 285.623 105.145 290.093L88.1096 310.701L79.4005 303.611C74.9032 299.951 68.2896 300.629 64.6287 305.126C60.9678 309.623 61.6458 316.237 66.1431 319.898L83.2478 333.821ZM66.6076 104.592C62.5071 108.692 62.5071 115.341 66.6076 119.441C70.7081 123.542 77.3564 123.542 81.4569 119.441L93.0202 107.878L104.583 119.441C108.684 123.542 115.332 123.542 119.433 119.441C123.533 115.341 123.533 108.692 119.433 104.592L107.869 93.0286L119.433 81.4653C123.533 77.3648 123.533 70.7165 119.433 66.616C115.332 62.5155 108.684 62.5155 104.584 66.616L93.0202 78.1794L81.4569 66.616C77.3563 62.5155 70.7081 62.5155 66.6076 66.616C62.5071 70.7165 62.5071 77.3648 66.6076 81.4653L78.1709 93.0286L66.6076 104.592ZM367.5 386C373.299 386 378 381.299 378 375.5C378 369.701 373.299 365 367.5 365C361.701 365 357 369.701 357 375.5C357 381.299 361.701 386 367.5 386Z" fill="#310660"/>
</svg>
